<svg viewBox="-10 -10 320 240" xmlns="http://www.w3.org/2000/svg">

<!--
Originally from:

  https://developer.mozilla.org/en-US/docs/Web/SVG/Attribute/fill-rule

CC0 as it was uploaded after 2010.
-->
  <!-- Effect of nonzero fill rule on crossing path segments -->
<g fill-rule="nonzero">
  <polygon stroke="red"
           points="50,0 21,90 98,35 2,35 79,90"/>
 
  <!--
  Effect of nonzero fill rule on a shape inside a shape
  with the path segment moving in the same direction
  (both squares drawn clockwise, to the "right")
  -->
  <path stroke="red"
        d="M110,0  h90 v90 h-90 z
           M130,20 h50 v50 h-50 z"/>
 
  <!--
  Effect of nonzero fill rule on a shape inside a shape
  with the path segment moving in the opposite direction
  (one square drawn clockwise, the other anti-clockwise)
  -->
  <path stroke="red"
        d="M210,0  h90 v90 h-90 z
           M230,20 v50 h50 v-50 z"/>
</g>
<g fill-rule="evenodd" transform="translate(0 120)">
  <!-- Effect of evenodd fill rule on crossing path segments -->
  <polygon stroke="red"
           points="50,0 21,90 98,35 2,35 79,90"/>
 
  <!--
  Effect of evenodd fill rule on on a shape inside a shape
  with the path segment moving in the same direction
  (both squares drawn clockwise, to the "right")
  -->
  <path stroke="red"
        d="M110,0  h90 v90 h-90 z
           M130,20 h50 v50 h-50 z"/>
 
  <!--
  Effect of evenodd fill rule on a shape inside a shape
  with the path segment moving in opposite direction
  (one square drawn clockwise, the other anti-clockwise)
  -->
  <path stroke="red"
        d="M210,0  h90 v90 h-90 z
           M230,20 v50 h50 v-50 z"/>
</g>
</svg>
