<!-- Originally from:
https://commons.wikimedia.org/wiki/File:Egcjm-mmvs.svg

CC-0
-->
<svg version="1.1" id="圖層_1" xmlns="http://www.w3.org/2000/svg" xmlns:xlink="http://www.w3.org/1999/xlink" x="0px" y="0px"
	 viewBox="222 -108.8 300 300" style="enable-background:new 222 -108.8 300 300;" xml:space="preserve">
<style type="text/css">
	.st0{fill:#0030AD;}
	.st1{enable-background:new    ;}
	.st2{fill:#BD0F3A;}
	.st3{fill:#E6A700;}
	.st4{fill:#198C83;}
	.st5{fill:red;stroke:#000000;stroke-width:2;stroke-miterlimit:10;}
</style>
<rect id="XMLID_10_" x="382.8" y="-63.3" class="st0" width="17.7" height="93.7"/>
<!-- hard-coded fill should overcome style since in a style tag -->
<ellipse id="XMLID_2_" class="st5" cx="394" cy="-7.2" rx="39.3" ry="55.3"
         style='fill: #CCC; fill-opacity: .3;'/>
<g id="XMLID_1_" class="st1">
        <!-- hard-coded fill should be overcome by style -->
	<path id="XMLID_11_" class="st2" d="M301.5,86.1V-39h42.6l3.2-6.3c-5.8-7.4-11.8-13.9-18-19.5l-13.5,18.3h-75.6l2.3,7.5h41.2V91.2
		c-14,3.9-28.7,7.7-44.1,11.4c6.3,18.4,11.4,27.5,15.2,27.5c2.6,0,4.2-4.2,4.8-12.6c27.3-9.6,59-23.9,94.9-42.9l-2.2-7.2
		C335,74.7,318,80.9,301.5,86.1z"
              fill='red'
                />
	<path id="XMLID_12_" class="st3" d="M506.2-61.4l3.7-6c-6.3-7.1-13.6-14.4-22-21.8l-15.5,20.4H340.7l2.6,7.5H506.2z"/>
	<polygon id="XMLID_6_" class="st0" points="393,11.7 393,19.1 429.5,19.1 429.4,11.7 	"/>
	<path id="XMLID_8_" class="st4" d="M475.6-3l-12.3,14.6h-33.9l0.1,7.5h36.9c-0.3,45.1-3.5,79.4-9.7,103c-3.3,13-12,19.5-26.1,19.5
		c-15.2,0-31.7-1.6-49.5-4.8v8.3c20,4.1,32.4,7,37.2,8.8c8.8,3.3,13.2,7.6,13.2,12.9c13,0,23.3-4.1,30.9-12.3
		c14.1-14.7,21.2-58.1,21.5-129.9l7.3-4.8c2-1.4,2.9-2.6,2.9-3.8C494.2,13.3,488,7,475.6-3z"/>
</g>
</svg>
